<svg xmlns="http://www.w3.org/2000/svg" viewBox="0 0 256 256" role="img" aria-label="QualiQ flame logo">
  <rect width="256" height="256" fill="#000000"/>
  <path fill="#235295" d="M143 22c7 29 9 54 7 76-3 38-21 63-49 90-25 25-38 50-42 85-17-27-24-53-24-82 0-47 20-82 58-116 22-20 39-36 50-53z"/>
  <path fill="#235295" d="M174 83c4 17 5 33 3 47-4 29-19 47-41 65-23 19-39 40-44 72-12-20-17-40-17-62 0-40 20-68 55-93 17-12 33-24 44-39z"/>
  <path fill="#235295" d="M184 145c2 10 2 20 1 29-3 21-14 35-31 49-18 15-31 33-35 58-8-15-12-31-12-47 0-31 15-52 44-72 12-9 24-17 33-28z"/>
</svg>
